<svg width="160" height="209" viewBox="0 0 160 209" fill="none" xmlns="http://www.w3.org/2000/svg">
<path opacity="0.3" d="M48.8024 111.926C48.2372 73.3831 72.2642 48.0261 100.317 46.9523C98.3733 48.4384 96.1128 50.5702 94.5105 53.0904C92.5207 56.22 91.5072 60.0223 93.5003 63.9095L93.6925 64.2843L94.0945 64.1585C122.58 55.2455 144.2 28.151 154.249 1.80565C164.049 35.8773 159.268 72.3303 130.031 90.7098L130.031 90.7098L130.024 90.7139C124.754 94.1401 121.14 98.4617 119.163 102.516C117.203 106.537 116.802 110.416 118.189 112.868C118.896 114.119 120.054 114.964 121.619 115.239C123.165 115.511 125.077 115.223 127.329 114.293C131.711 112.484 137.524 108.183 144.74 100.38C153.739 130.087 148.749 160.908 133.021 181.912C117.394 202.78 91.1307 214.011 57.2785 204.788C57.7503 204.622 58.2753 204.441 58.8475 204.244C65.1318 202.076 77.1227 197.941 87.136 189.506C93.1478 184.442 98.4689 177.815 101.442 169.114C104.417 160.411 105.029 149.671 101.683 136.403L101.297 134.873L100.732 136.346C97.9412 143.613 94.4975 148.269 90.7362 151.616C86.9663 154.97 82.8574 157.029 78.678 159.083L78.342 159.248C74.2833 161.241 70.1634 163.265 66.35 166.498C62.839 169.474 59.6006 173.463 56.8693 179.375C57.0201 171.133 59.0955 165.817 62.0541 161.744C64.4556 158.438 67.4308 155.948 70.5264 153.357C71.6404 152.424 72.77 151.479 73.8941 150.478C78.1196 146.714 82.151 142.242 84.5943 134.89C87.0326 127.553 87.8742 117.394 85.8257 102.275L84.8509 102.2C81.9584 111.942 76.1065 118.303 69.122 123.332C65.6251 125.85 61.8476 128.031 58.0129 130.137C56.96 130.715 55.9018 131.288 54.8439 131.861C52.0579 133.37 49.2749 134.877 46.5999 136.472C39.2116 140.88 32.5413 146.023 28.5962 153.988C24.7758 161.701 23.5473 171.983 26.5628 186.661C3.46388 166.003 -2.36229 142.876 2.61171 121.704C7.57373 100.583 23.3038 81.3285 43.5659 68.3785C38.52 82.3888 37.5386 97.0062 47.8891 112.215L48.8268 113.593L48.8024 111.926Z" stroke="#DC251C"/>
</svg>
