<svg width="212" height="372" viewBox="0 0 212 372" fill="none" xmlns="http://www.w3.org/2000/svg">
<path fill-rule="evenodd" clip-rule="evenodd" d="M190.425 1.06332L105.807 40.7393L21.1876 1.06332C15.2516 -2.24566 7.06641 2.50752 7.06641 11.0061V176.669C7.06641 183.017 10.7687 188.191 15.7926 188.35C16.0236 188.38 16.2573 188.38 16.4883 188.35H16.9907L72.4474 182.438L61.9435 167.068C57.3524 160.489 62.9174 154.776 68.807 156.998C69.9896 157.442 71.2726 156.855 72.4242 157.165L58.5117 108.982C58.4576 108.815 58.4113 108.649 58.3649 108.482L58.2567 108.117V108.006C57.8778 106.05 58.2024 104.019 59.1701 102.29C60.1379 100.561 61.6833 99.2509 63.52 98.602C65.3567 97.9531 67.3603 98.0097 69.1595 98.7612C70.9587 99.5128 72.4316 100.908 73.3054 102.689V102.761C73.4368 103.031 89.2661 143.127 89.2661 143.127C89.6351 141.095 90.6981 139.264 92.264 137.963C93.8298 136.663 95.7961 135.979 97.8093 136.033C99.8226 136.088 101.751 136.878 103.248 138.261C104.745 139.644 105.712 141.53 105.977 143.579C106.255 141.469 107.276 139.537 108.846 138.145C110.416 136.754 112.428 136 114.502 136.025C118.637 136.025 121.845 139.779 122.563 143.825L131.97 116.608C132.621 114.786 133.875 113.257 135.512 112.288C137.149 111.318 139.065 110.969 140.927 111.301C142.789 111.634 144.478 112.627 145.7 114.107C146.922 115.587 147.599 117.461 147.614 119.401V119.655L139.235 182.383L194.63 188.294H195.133C195.363 188.324 195.597 188.324 195.828 188.294C200.852 188.136 204.276 182.994 204.276 176.638V10.9664C204.268 2.47578 196.361 -2.24566 190.425 1.06332Z" fill="#EC1C24"/>
<path d="M166.93 217.813H149.54C148.418 217.813 147.342 218.271 146.549 219.085C145.755 219.9 145.31 221.004 145.31 222.156V285.844C145.31 286.996 145.755 288.101 146.549 288.915C147.342 289.73 148.418 290.187 149.54 290.187H166.93C192.867 290.187 205.934 275.711 205.934 254.149C205.934 232.587 192.867 217.813 166.93 217.813ZM172.414 268.159H167.886C167.138 268.159 166.421 267.854 165.892 267.311C165.363 266.768 165.066 266.031 165.066 265.264V242.423C165.066 241.655 165.363 240.919 165.892 240.376C166.421 239.833 167.138 239.528 167.886 239.528H172.116C178.062 239.528 181.987 244.635 181.987 254.149C181.987 263.663 178.399 268.167 172.453 268.167L172.414 268.159ZM9.96038 290.187H22.6508C23.7727 290.187 24.8487 289.73 25.642 288.915C26.4353 288.101 26.881 286.996 26.881 285.844V265.577L33.2419 279.072C33.5945 279.802 34.14 280.415 34.816 280.842C35.492 281.269 36.2712 281.492 37.0647 281.485H37.237C38.0034 281.49 38.7567 281.28 39.4162 280.879C40.0757 280.479 40.6167 279.901 40.9815 279.209L48.0317 265.585V285.852C48.0317 287.004 48.4774 288.109 49.2707 288.923C50.064 289.738 51.14 290.195 52.2619 290.195H64.9524C65.5079 290.195 66.0579 290.083 66.5712 289.865C67.0844 289.646 67.5507 289.326 67.9435 288.923C68.3363 288.52 68.6479 288.041 68.8605 287.514C69.0731 286.987 69.1825 286.423 69.1825 285.852V222.156C69.1825 221.586 69.0731 221.021 68.8605 220.494C68.6479 219.967 68.3363 219.489 67.9435 219.085C67.5507 218.682 67.0844 218.362 66.5712 218.144C66.0579 217.926 65.5079 217.813 64.9524 217.813H51.2357C50.4674 217.813 49.7136 218.028 49.0553 218.435C48.397 218.842 47.859 219.425 47.4991 220.121L36.7513 240.975L25.9958 220.129C25.6358 219.433 25.0978 218.85 24.4395 218.443C23.7812 218.036 23.0274 217.821 22.2592 217.821H9.96038C8.83847 217.821 7.76251 218.279 6.96921 219.093C6.1759 219.908 5.73022 221.012 5.73022 222.164V285.852C5.7323 287.003 6.17889 288.105 6.97197 288.918C7.76506 289.731 8.83983 290.187 9.96038 290.187ZM118.534 283.206L119.6 287.043C119.852 287.95 120.385 288.749 121.118 289.318C121.852 289.887 122.746 290.195 123.665 290.195H135.416C136.075 290.196 136.724 290.039 137.313 289.736C137.902 289.433 138.414 288.992 138.808 288.45C139.201 287.908 139.466 287.278 139.58 286.612C139.694 285.946 139.655 285.262 139.466 284.614C135.243 270.218 124.096 232.193 120.853 221.078C120.592 220.187 120.057 219.406 119.329 218.851C118.601 218.296 117.718 217.997 116.811 217.998H97.6969C96.7883 217.998 95.9038 218.298 95.1744 218.855C94.445 219.411 93.9094 220.193 93.6469 221.087L75.042 284.622C74.8454 285.272 74.8007 285.962 74.9114 286.633C75.0222 287.305 75.2853 287.941 75.6796 288.489C76.0738 289.037 76.5881 289.482 77.1809 289.788C77.7737 290.094 78.4284 290.253 79.092 290.251H91.3595C92.2788 290.251 93.1729 289.943 93.9065 289.374C94.64 288.805 95.1732 288.007 95.4251 287.099L96.4905 283.263C96.7424 282.355 97.2756 281.556 98.0091 280.987C98.7427 280.419 99.6368 280.111 100.556 280.11H114.469C115.381 280.107 116.27 280.407 117.002 280.965C117.735 281.523 118.272 282.309 118.534 283.206ZM101.598 263.293L107.238 243.026L112.878 263.293H101.598ZM26.881 303.2H9.96038C8.83847 303.2 7.76251 303.657 6.96921 304.472C6.1759 305.286 5.73022 306.391 5.73022 307.543V353.867C5.73022 355.019 6.1759 356.124 6.96921 356.938C7.76251 357.752 8.83847 358.21 9.96038 358.21H28.291C47.7027 358.21 56.492 346.814 56.492 330.705C56.492 314.596 46.2849 303.2 26.881 303.2ZM28.291 340.83H25.4709C25.097 340.83 24.7383 340.678 24.4739 340.406C24.2094 340.135 24.0609 339.767 24.0609 339.383V322.011C24.0609 321.627 24.2094 321.259 24.4739 320.987C24.7383 320.716 25.097 320.563 25.4709 320.563H28.291C33.7746 320.563 36.7513 323.579 36.7513 330.697C36.7513 337.814 33.7589 340.854 28.291 340.854V340.83ZM197.246 327.592C195.429 326.343 191.533 324.938 185.559 323.378L182.605 322.63C182.396 322.582 182.094 322.499 181.697 322.381C177.2 321.217 174.952 319.765 174.952 318.022C174.919 317.495 175.02 316.968 175.245 316.492C175.47 316.017 175.812 315.61 176.237 315.312C177.431 314.634 178.791 314.324 180.153 314.419C181.766 314.319 183.37 314.716 184.76 315.561C185.841 316.325 187.76 317.596 188.011 319.148H198.782C199.207 319.15 199.627 319.053 200.01 318.864C200.393 318.675 200.729 318.4 200.994 318.059C201.258 317.717 201.444 317.319 201.537 316.893C201.631 316.468 201.628 316.026 201.531 315.601C200.773 312.077 198.8 308.953 195.977 306.803C191.452 303.454 185.998 301.689 180.42 301.768C174.748 301.669 169.205 303.505 164.659 306.988C160.828 309.963 158.392 313.494 158.392 318.706C158.511 321.322 159.185 323.88 160.366 326.201C161.403 328.286 162.926 330.077 164.8 331.413C166.335 332.374 167.976 333.146 169.688 333.713C171.928 334.533 174.936 335.444 178.712 336.447L180.835 336.986C185.447 338.176 187.754 339.723 187.76 341.627C187.764 342.206 187.612 342.775 187.32 343.27C187.029 343.766 186.609 344.168 186.107 344.433C184.711 345.184 183.145 345.537 181.571 345.455C179.274 345.455 177.545 345.039 176.386 344.208C175.226 343.404 174.341 341.321 173.902 339.383H161.682C161.262 339.382 160.848 339.478 160.469 339.662C160.09 339.846 159.756 340.115 159.49 340.448C159.225 340.782 159.035 341.171 158.935 341.589C158.834 342.007 158.825 342.443 158.909 342.865C159.763 347.095 161.564 350.779 164.706 353.24C168.685 356.36 173.62 358.194 180.412 358.194C187.783 358.194 193.894 356.36 197.85 353.24C201.806 350.119 203.529 345.197 203.529 339.375C203.529 336.68 203.255 334.823 202.213 332.844C201.001 330.702 199.296 328.899 197.246 327.592ZM151.388 303.2H139.395C138.405 303.2 137.447 303.557 136.687 304.208C135.927 304.859 135.413 305.763 135.236 306.763L130.23 335.04L125.224 306.763C125.046 305.763 124.533 304.859 123.773 304.208C123.013 303.557 122.054 303.2 121.065 303.2H109.063C108.407 303.199 107.76 303.356 107.173 303.656C106.586 303.957 106.075 304.394 105.681 304.932C105.287 305.47 105.02 306.095 104.901 306.758C104.782 307.42 104.816 308.102 104.998 308.749L118.056 355.065C118.311 355.97 118.846 356.765 119.579 357.331C120.312 357.897 121.205 358.202 122.122 358.202H138.322C139.239 358.202 140.132 357.897 140.865 357.331C141.598 356.765 142.133 355.97 142.388 355.065L155.446 308.749C155.628 308.103 155.662 307.422 155.543 306.76C155.425 306.098 155.159 305.473 154.766 304.935C154.372 304.397 153.862 303.96 153.276 303.659C152.69 303.358 152.044 303.201 151.388 303.2ZM95.9656 303.2H64.9445C64.389 303.2 63.8389 303.312 63.3257 303.53C62.8125 303.749 62.3462 304.069 61.9534 304.472C61.5605 304.875 61.249 305.354 61.0364 305.881C60.8238 306.408 60.7144 306.972 60.7144 307.543V353.867C60.7144 355.019 61.16 356.124 61.9534 356.938C62.7467 357.752 63.8226 358.21 64.9445 358.21H95.9656C97.0875 358.21 98.1635 357.752 98.9568 356.938C99.7501 356.124 100.196 355.019 100.196 353.867V346.629C100.196 345.861 99.8987 345.125 99.3698 344.582C98.8409 344.039 98.1236 343.734 97.3757 343.734H79.045C78.6711 343.734 78.3124 343.581 78.048 343.31C77.7835 343.038 77.635 342.67 77.635 342.286V339.391C77.635 339.007 77.7835 338.639 78.048 338.367C78.3124 338.096 78.6711 337.943 79.045 337.943H93.1455C93.5159 337.943 93.8826 337.868 94.2247 337.723C94.5669 337.577 94.8778 337.364 95.1396 337.095C95.4015 336.826 95.6092 336.507 95.751 336.156C95.8927 335.805 95.9656 335.428 95.9656 335.048V326.362C95.9656 325.594 95.6685 324.858 95.1396 324.315C94.6108 323.772 93.8935 323.467 93.1455 323.467H79.045C78.6711 323.467 78.3124 323.314 78.048 323.043C77.7835 322.771 77.635 322.403 77.635 322.019V319.124C77.635 318.74 77.7835 318.372 78.048 318.1C78.3124 317.829 78.6711 317.676 79.045 317.676H97.3835C97.7539 317.676 98.1206 317.601 98.4627 317.456C98.8049 317.31 99.1158 317.097 99.3776 316.828C99.6395 316.559 99.8472 316.24 99.9889 315.889C100.131 315.538 100.204 315.161 100.204 314.781V307.543C100.204 306.972 100.094 306.406 99.8809 305.879C99.6678 305.351 99.3555 304.872 98.9619 304.469C98.5682 304.066 98.101 303.746 97.5868 303.528C97.0727 303.31 96.5218 303.199 95.9656 303.2Z" fill="white"/>
</svg>
