<svg width="198" height="189" viewBox="0 0 198 189" fill="none" xmlns="http://www.w3.org/2000/svg">
<path fill-rule="evenodd" clip-rule="evenodd" d="M183.425 1.06332L98.8065 40.7393L14.1876 1.06332C8.25159 -2.24566 0.0664062 2.50752 0.0664062 11.0061V176.669C0.0664062 183.017 3.76868 188.191 8.79264 188.35C9.0236 188.38 9.2573 188.38 9.48826 188.35H9.99066L65.4474 182.438L54.9435 167.068C50.3524 160.489 55.9174 154.776 61.807 156.998C62.9896 157.442 64.2726 156.855 65.4242 157.165L51.5117 108.982C51.4576 108.815 51.4113 108.649 51.3649 108.482L51.2567 108.117V108.006C50.8778 106.05 51.2024 104.019 52.1701 102.29C53.1379 100.561 54.6833 99.2509 56.52 98.602C58.3567 97.9531 60.3603 98.0097 62.1595 98.7612C63.9587 99.5128 65.4316 100.908 66.3054 102.689V102.761C66.4368 103.031 82.2661 143.127 82.2661 143.127C82.6351 141.095 83.6981 139.264 85.264 137.963C86.8298 136.663 88.7961 135.979 90.8093 136.033C92.8226 136.088 94.7509 136.878 96.2479 138.261C97.7449 139.644 98.7124 141.53 98.9766 143.579C99.2555 141.469 100.276 139.537 101.846 138.145C103.416 136.754 105.428 136 107.502 136.025C111.637 136.025 114.845 139.779 115.563 143.825L124.97 116.608C125.621 114.786 126.875 113.257 128.512 112.288C130.149 111.318 132.065 110.969 133.927 111.301C135.789 111.634 137.478 112.627 138.7 114.107C139.922 115.587 140.599 117.461 140.614 119.401V119.655L132.235 182.383L187.63 188.294H188.133C188.363 188.324 188.597 188.324 188.828 188.294C193.852 188.136 197.276 182.994 197.276 176.638V10.9664C197.268 2.47578 189.361 -2.24566 183.425 1.06332V1.06332Z" fill="#EC1C24"/>
</svg>
