<svg width="34" height="43" viewBox="0 0 34 43" fill="none" xmlns="http://www.w3.org/2000/svg">
<path fill-rule="evenodd" clip-rule="evenodd" d="M9.74924 14.1981C8.64073 17.1164 8.36222 20.1483 10.5138 23.3098C10.396 15.2712 15.5101 10.0045 21.4276 9.97382C20.5659 10.5511 19.038 11.9929 19.8045 13.4879C25.6657 11.6539 30.1014 6.00479 32.0911 0.571415C34.2038 7.60845 33.2961 15.2461 27.204 19.0758C22.971 21.8275 24.1058 27.4275 30.1891 20.7584C34.0111 33.0106 26.1618 46.3022 12.0113 42.2239C13.8546 41.4913 23.9892 39.0542 21.2809 28.3155C18.9881 34.2867 14.5103 31.7629 12.1576 37.5231C11.964 29.619 19.7141 33.633 18.0509 21.3574C15.6629 29.4008 3.48776 26.2588 6.25238 38.8008C-3.58591 30.2439 1.22347 19.4906 9.74924 14.1981Z" fill="#EC1C24"/>
</svg>
