<svg width="768" height="75" viewBox="0 0 768 75" fill="none" xmlns="http://www.w3.org/2000/svg">
<rect width="768" height="75" fill="#E5E5E5"/>
<rect width="1441" height="955" transform="translate(-336 -117)" fill="#111213"/>
<path d="M242.953 44H239.313L224.673 21.8V44H221.033V16.08H224.673L239.313 38.24V16.08H242.953V44ZM268.158 32.2C268.158 32.8933 268.118 33.6267 268.038 34.4H250.518C250.651 36.56 251.385 38.2533 252.718 39.48C254.078 40.68 255.718 41.28 257.638 41.28C259.211 41.28 260.518 40.92 261.558 40.2C262.625 39.4533 263.371 38.4667 263.798 37.24H267.718C267.131 39.3467 265.958 41.0667 264.198 42.4C262.438 43.7067 260.251 44.36 257.638 44.36C255.558 44.36 253.691 43.8933 252.038 42.96C250.411 42.0267 249.131 40.7067 248.198 39C247.265 37.2667 246.798 35.2667 246.798 33C246.798 30.7333 247.251 28.7467 248.158 27.04C249.065 25.3333 250.331 24.0267 251.958 23.12C253.611 22.1867 255.505 21.72 257.638 21.72C259.718 21.72 261.558 22.1733 263.158 23.08C264.758 23.9867 265.985 25.24 266.838 26.84C267.718 28.4133 268.158 30.2 268.158 32.2ZM264.398 31.44C264.398 30.0533 264.091 28.8667 263.478 27.88C262.865 26.8667 262.025 26.1067 260.958 25.6C259.918 25.0667 258.758 24.8 257.478 24.8C255.638 24.8 254.065 25.3867 252.758 26.56C251.478 27.7333 250.745 29.36 250.558 31.44H264.398ZM301.163 22.08L294.323 44H290.563L285.283 26.6L280.003 44H276.243L269.363 22.08H273.083L278.123 40.48L283.563 22.08H287.283L292.603 40.52L297.563 22.08H301.163ZM365.4 26.12C366.12 24.8667 367.186 23.8267 368.6 23C370.04 22.1467 371.706 21.72 373.6 21.72C375.546 21.72 377.306 22.1867 378.88 23.12C380.48 24.0533 381.733 25.3733 382.64 27.08C383.546 28.76 384 30.72 384 32.96C384 35.1733 383.546 37.1467 382.64 38.88C381.733 40.6133 380.48 41.96 378.88 42.92C377.306 43.88 375.546 44.36 373.6 44.36C371.733 44.36 370.08 43.9467 368.64 43.12C367.226 42.2667 366.146 41.2133 365.4 39.96V54.4H361.76V22.08H365.4V26.12ZM380.28 32.96C380.28 31.3067 379.946 29.8667 379.28 28.64C378.613 27.4133 377.706 26.48 376.56 25.84C375.44 25.2 374.2 24.88 372.84 24.88C371.506 24.88 370.266 25.2133 369.12 25.88C368 26.52 367.093 27.4667 366.4 28.72C365.733 29.9467 365.4 31.3733 365.4 33C365.4 34.6533 365.733 36.1067 366.4 37.36C367.093 38.5867 368 39.5333 369.12 40.2C370.266 40.84 371.506 41.16 372.84 41.16C374.2 41.16 375.44 40.84 376.56 40.2C377.706 39.5333 378.613 38.5867 379.28 37.36C379.946 36.1067 380.28 34.64 380.28 32.96ZM391.431 25.64C392.071 24.3867 392.978 23.4133 394.151 22.72C395.351 22.0267 396.804 21.68 398.511 21.68V25.44H397.551C393.471 25.44 391.431 27.6533 391.431 32.08V44H387.791V22.08H391.431V25.64ZM411.273 44.36C409.219 44.36 407.353 43.8933 405.673 42.96C404.019 42.0267 402.713 40.7067 401.753 39C400.819 37.2667 400.353 35.2667 400.353 33C400.353 30.76 400.833 28.7867 401.793 27.08C402.779 25.3467 404.113 24.0267 405.793 23.12C407.473 22.1867 409.353 21.72 411.433 21.72C413.513 21.72 415.393 22.1867 417.073 23.12C418.753 24.0267 420.073 25.3333 421.033 27.04C422.019 28.7467 422.513 30.7333 422.513 33C422.513 35.2667 422.006 37.2667 420.993 39C420.006 40.7067 418.659 42.0267 416.953 42.96C415.246 43.8933 413.353 44.36 411.273 44.36ZM411.273 41.16C412.579 41.16 413.806 40.8533 414.953 40.24C416.099 39.6267 417.019 38.7067 417.713 37.48C418.433 36.2533 418.793 34.76 418.793 33C418.793 31.24 418.446 29.7467 417.753 28.52C417.059 27.2933 416.153 26.3867 415.033 25.8C413.913 25.1867 412.699 24.88 411.393 24.88C410.059 24.88 408.833 25.1867 407.713 25.8C406.619 26.3867 405.739 27.2933 405.073 28.52C404.406 29.7467 404.073 31.24 404.073 33C404.073 34.7867 404.393 36.2933 405.033 37.52C405.699 38.7467 406.579 39.6667 407.673 40.28C408.766 40.8667 409.966 41.16 411.273 41.16ZM428.259 18.52C427.565 18.52 426.979 18.28 426.499 17.8C426.045 17.32 425.819 16.7333 425.819 16.04C425.819 15.3467 426.045 14.76 426.499 14.28C426.979 13.8 427.565 13.56 428.259 13.56C428.952 13.56 429.525 13.8 429.979 14.28C430.459 14.76 430.699 15.3467 430.699 16.04C430.699 16.7333 430.459 17.32 429.979 17.8C429.525 18.28 428.952 18.52 428.259 18.52ZM430.059 48.76C430.059 50.7067 429.565 52.1333 428.579 53.04C427.592 53.9467 426.152 54.4 424.259 54.4H422.139V51.32H423.659C424.672 51.32 425.379 51.12 425.779 50.72C426.205 50.32 426.419 49.64 426.419 48.68V22.08H430.059V48.76ZM455.221 32.2C455.221 32.8933 455.181 33.6267 455.101 34.4H437.581C437.714 36.56 438.447 38.2533 439.781 39.48C441.141 40.68 442.781 41.28 444.701 41.28C446.274 41.28 447.581 40.92 448.621 40.2C449.687 39.4533 450.434 38.4667 450.861 37.24H454.781C454.194 39.3467 453.021 41.0667 451.261 42.4C449.501 43.7067 447.314 44.36 444.701 44.36C442.621 44.36 440.754 43.8933 439.101 42.96C437.474 42.0267 436.194 40.7067 435.261 39C434.327 37.2667 433.861 35.2667 433.861 33C433.861 30.7333 434.314 28.7467 435.221 27.04C436.127 25.3333 437.394 24.0267 439.021 23.12C440.674 22.1867 442.567 21.72 444.701 21.72C446.781 21.72 448.621 22.1733 450.221 23.08C451.821 23.9867 453.047 25.24 453.901 26.84C454.781 28.4133 455.221 30.2 455.221 32.2ZM451.461 31.44C451.461 30.0533 451.154 28.8667 450.541 27.88C449.927 26.8667 449.087 26.1067 448.021 25.6C446.981 25.0667 445.821 24.8 444.541 24.8C442.701 24.8 441.127 25.3867 439.821 26.56C438.541 27.7333 437.807 29.36 437.621 31.44H451.461ZM457.665 33C457.665 30.7333 458.119 28.76 459.025 27.08C459.932 25.3733 461.185 24.0533 462.785 23.12C464.412 22.1867 466.265 21.72 468.345 21.72C471.039 21.72 473.252 22.3733 474.985 23.68C476.745 24.9867 477.905 26.8 478.465 29.12H474.545C474.172 27.7867 473.439 26.7333 472.345 25.96C471.279 25.1867 469.945 24.8 468.345 24.8C466.265 24.8 464.585 25.52 463.305 26.96C462.025 28.3733 461.385 30.3867 461.385 33C461.385 35.64 462.025 37.68 463.305 39.12C464.585 40.56 466.265 41.28 468.345 41.28C469.945 41.28 471.279 40.9067 472.345 40.16C473.412 39.4133 474.145 38.3467 474.545 36.96H478.465C477.879 39.2 476.705 41 474.945 42.36C473.185 43.6933 470.985 44.36 468.345 44.36C466.265 44.36 464.412 43.8933 462.785 42.96C461.185 42.0267 459.932 40.7067 459.025 39C458.119 37.2933 457.665 35.2933 457.665 33ZM486.762 25.08V38C486.762 39.0667 486.989 39.8267 487.442 40.28C487.896 40.7067 488.682 40.92 489.802 40.92H492.482V44H489.202C487.176 44 485.656 43.5333 484.642 42.6C483.629 41.6667 483.122 40.1333 483.122 38V25.08H480.282V22.08H483.122V16.56H486.762V22.08H492.482V25.08H486.762ZM509.197 26.16C509.943 24.8533 511.037 23.7867 512.477 22.96C513.917 22.1333 515.557 21.72 517.397 21.72C519.37 21.72 521.143 22.1867 522.717 23.12C524.29 24.0533 525.53 25.3733 526.437 27.08C527.343 28.76 527.797 30.72 527.797 32.96C527.797 35.1733 527.343 37.1467 526.437 38.88C525.53 40.6133 524.277 41.96 522.677 42.92C521.103 43.88 519.343 44.36 517.397 44.36C515.503 44.36 513.837 43.9467 512.397 43.12C510.983 42.2933 509.917 41.24 509.197 39.96V44H505.557V14.4H509.197V26.16ZM524.077 32.96C524.077 31.3067 523.743 29.8667 523.077 28.64C522.41 27.4133 521.503 26.48 520.357 25.84C519.237 25.2 517.997 24.88 516.637 24.88C515.303 24.88 514.063 25.2133 512.917 25.88C511.797 26.52 510.89 27.4667 510.197 28.72C509.53 29.9467 509.197 31.3733 509.197 33C509.197 34.6533 509.53 36.1067 510.197 37.36C510.89 38.5867 511.797 39.5333 512.917 40.2C514.063 40.84 515.303 41.16 516.637 41.16C517.997 41.16 519.237 40.84 520.357 40.2C521.503 39.5333 522.41 38.5867 523.077 37.36C523.743 36.1067 524.077 34.64 524.077 32.96ZM550.468 22.08L537.268 54.32H533.508L537.828 43.76L528.988 22.08H533.028L539.908 39.84L546.708 22.08H550.468Z" fill="#F5F7F9"/>
<path d="M332.23 35.9038L345.409 60.4299L340.813 19.8712L332.227 22.1656L328.283 5.28645L309.967 14.505L323.62 38.7336L332.23 35.9038Z" fill="#EC1C24"/>
</svg>
